<svg xmlns="http://www.w3.org/2000/svg"  viewBox="0 0 50 50" width="100px" height="100px"><path d="M 13 4 C 8.0414839 4 4 8.0414839 4 13 L 4 37 C 4 41.958516 8.0414839 46 13 46 L 37 46 C 41.958516 46 46 41.958516 46 37 L 46 13 C 46 8.0414839 41.958516 4 37 4 L 13 4 z M 13 6 L 37 6 C 40.877484 6 44 9.1225161 44 13 L 44 37 C 44 40.877484 40.877484 44 37 44 L 13 44 C 9.1225161 44 6 40.877484 6 37 L 6 13 C 6 9.1225161 9.1225161 6 13 6 z M 25 10 C 24.416854 9.9996351 23.780571 10.399481 23.574219 11.035156 L 20.560547 20.3125 L 10.804688 20.3125 C 10.136686 20.3125 9.5591374 20.793099 9.3789062 21.347656 C 9.1986753 21.902213 9.3833562 22.630866 9.9238281 23.023438 L 17.816406 28.757812 L 14.802734 38.035156 C 14.59563 38.670276 14.873784 39.367852 15.345703 39.710938 C 15.817628 40.054023 16.566918 40.105435 17.107422 39.712891 L 25 33.978516 L 32.892578 39.712891 C 33.433646 40.105512 34.183315 40.055291 34.654297 39.712891 C 35.125279 39.370491 35.403619 38.672787 35.197266 38.037109 L 32.183594 28.759766 L 40.076172 23.025391 C 40.616648 22.63282 40.801325 21.904166 40.621094 21.349609 C 40.440863 20.795052 39.863315 20.314453 39.195312 20.314453 L 29.439453 20.314453 L 26.425781 11.037109 C 26.21992 10.401565 25.583146 10.000365 25 10 z M 25 13.121094 L 27.335938 20.310547 L 22.664062 20.310547 L 25 13.121094 z M 22.015625 22.310547 L 27.984375 22.310547 L 29.833984 27.988281 L 25 31.503906 L 20.166016 27.988281 L 22.015625 22.310547 z M 12.347656 22.3125 L 19.912109 22.3125 L 18.464844 26.755859 L 12.347656 22.3125 z M 30.087891 22.314453 L 37.650391 22.314453 L 31.537109 26.757812 L 30.087891 22.314453 z M 19.519531 29.992188 L 23.300781 32.740234 L 17.179688 37.1875 L 19.519531 29.992188 z M 30.480469 29.992188 L 32.820312 37.189453 L 26.699219 32.740234 L 30.480469 29.992188 z M 33.296875 38.650391 L 33.296875 38.654297 L 33.294922 38.654297 C 33.294502 38.652997 33.297275 38.651691 33.296875 38.650391 z"/></svg>